<svg xmlns="http://www.w3.org/2000/svg" style="visibility:hidden; width:0; height:0;">


  <symbol id='fb' viewBox="0 0 48 48">
    <path d="M48 24C48 10.744 37.256 0 24 0S0 10.744 0 24c0 11.981 8.775 21.91 20.25 23.71V30.936h-6.094V24h6.094v-5.288c0-6.014 3.581-9.337 9.066-9.337 2.625 0 5.372.469 5.372.469v5.906h-3.029c-2.98 0-3.909 1.852-3.909 3.75V24h6.656l-1.064 6.938H27.75v16.771C39.225 45.91 48 35.981 48 24z"/>
    <path d="M33.342 30.938L34.406 24H27.75v-4.5c0-1.898.928-3.75 3.91-3.75h3.027V9.844s-2.746-.469-5.371-.469c-5.485 0-9.066 3.323-9.066 9.337V24h-6.094v6.938h6.094v16.771c1.223.193 2.475.291 3.75.291s2.527-.098 3.75-.29V30.936h5.592z" fill="#fff"/>
  </symbol>

  <symbol id='github' viewBox="0 0 48 48">
    <path d="M24 0C10.747 0 0 11.017 0 24.608c0 10.872 6.877 20.096 16.413 23.35 1.2.227 1.64-.534 1.64-1.184 0-.587-.023-2.525-.033-4.581-6.677 1.488-8.086-2.904-8.086-2.904-1.092-2.844-2.665-3.6-2.665-3.6-2.177-1.528.165-1.496.165-1.496 2.41.173 3.679 2.535 3.679 2.535 2.14 3.762 5.614 2.675 6.984 2.046.215-1.59.837-2.676 1.523-3.29-5.33-.623-10.934-2.733-10.934-12.162 0-2.686.937-4.881 2.473-6.605-.25-.62-1.071-3.122.232-6.512 0 0 2.016-.661 6.602 2.523 1.914-.546 3.968-.82 6.007-.828 2.04.009 4.095.282 6.013.828 4.58-3.184 6.593-2.523 6.593-2.523 1.306 3.39.484 5.893.235 6.512 1.54 1.724 2.47 3.919 2.47 6.605 0 9.452-5.614 11.533-10.959 12.142.861.764 1.628 2.261 1.628 4.557 0 3.292-.027 5.942-.027 6.753 0 .655.432 1.422 1.648 1.18C41.132 44.697 48 35.476 48 24.608 48 11.017 37.255 0 24 0z"/>
  </symbol>

  <symbol id='youtube' viewBox="0 0 48 48">
    <path d="M0 24C0 10.745 10.745 0 24 0s24 10.745 24 24-10.745 24-24 24S0 37.255 0 24z"/>
    <path d="M24 15.2s-8.005 0-10.002.55a3.248 3.248 0 0 0-2.264 2.322C11.2 20.122 11.2 24.4 11.2 24.4s0 4.277.535 6.327a3.254 3.254 0 0 0 2.264 2.324C15.995 33.6 24 33.6 24 33.6s8.005 0 10.002-.55c1.101-.301 1.97-1.192 2.264-2.323.535-2.05.535-6.327.535-6.327s0-4.278-.535-6.328a3.254 3.254 0 0 0-2.264-2.324C32.005 15.199 24 15.199 24 15.199zm-2.4 5.6l6.4 4-6.4 4v-8z" fill="#fff"/>
  </symbol>
  
  <symbol id='vk' viewBox="0 0 48 48">
    <path d="M0 24C0 10.745 10.745 0 24 0s24 10.745 24 24-10.745 24-24 24S0 37.255 0 24z"/>
    <path d="M25.256 31.876s.462-.05.698-.3c.217-.228.21-.66.21-.66s-.03-2.014.923-2.312c.94-.292 2.145 1.948 3.425 2.81.966.651 1.7.509 1.7.509l3.42-.047s1.788-.108.94-1.488c-.07-.113-.495-1.022-2.542-2.887-2.145-1.953-1.857-1.638.725-5.016 1.573-2.058 2.201-3.314 2.005-3.85-.187-.515-1.344-.378-1.344-.378l-3.849.023s-.285-.038-.497.086c-.206.122-.34.406-.34.406s-.609 1.591-1.422 2.946c-1.714 2.856-2.398 3.007-2.679 2.83-.652-.414-.49-1.661-.49-2.547 0-2.77.429-3.924-.832-4.222-.418-.1-.726-.165-1.797-.176-1.373-.014-2.536.005-3.194.32-.438.211-.776.68-.57.708.254.033.83.152 1.136.56.394.527.38 1.71.38 1.71s.227 3.26-.53 3.663c-.517.278-1.229-.288-2.758-2.88-.782-1.328-1.373-2.795-1.373-2.795s-.114-.274-.318-.422c-.247-.178-.591-.233-.591-.233l-3.657.023s-.55.015-.752.25c-.179.207-.013.638-.013.638s2.863 6.577 6.106 9.892c2.974 3.038 6.35 2.84 6.35 2.84h1.53z" fill="#fff"/>
  </symbol>
  
  <symbol id='twitter' viewBox="0 0 48 48">
    <path d="M0 24C0 10.745 10.745 0 24 0s24 10.745 24 24-10.745 24-24 24S0 37.255 0 24z"/>
    <path d="M23.281 19.508l.05.83-.839-.102c-3.055-.39-5.724-1.712-7.99-3.932l-1.109-1.101-.285.813c-.604 1.814-.218 3.729 1.04 5.017.672.712.521.813-.637.39-.403-.136-.756-.238-.79-.187-.117.119.286 1.661.605 2.271.437.848 1.326 1.678 2.3 2.17l.823.39-.974.016c-.94 0-.974.017-.873.373.336 1.102 1.662 2.271 3.14 2.78l1.04.356-.906.542a9.45 9.45 0 0 1-4.5 1.254c-.755.017-1.376.085-1.376.136 0 .17 2.048 1.118 3.24 1.491 3.576 1.102 7.823.627 11.013-1.254 2.266-1.339 4.532-4 5.59-6.576.57-1.373 1.141-3.881 1.141-5.084 0-.78.05-.882.99-1.814.555-.542 1.075-1.135 1.176-1.305.168-.322.151-.322-.705-.034-1.427.509-1.629.441-.923-.322.52-.542 1.141-1.525 1.141-1.813 0-.05-.252.034-.537.186-.302.17-.974.424-1.477.577l-.907.288-.823-.56c-.453-.305-1.09-.644-1.426-.745-.857-.238-2.166-.204-2.938.068-2.099.762-3.425 2.728-3.274 4.88z" fill="#fff"/>
  </symbol>
  
  <symbol id='telegram' viewBox="0 0 48 48">
    <path d="M24 48c13.255 0 24-10.745 24-24S37.255 0 24 0 0 10.745 0 24s10.745 24 24 24z"/>
    <path d="M7.938 24.174c2.806-1.545 5.938-2.835 8.864-4.132 5.034-2.123 10.088-4.21 15.193-6.152.994-.331 2.778-.655 2.953.817-.095 2.084-.49 4.155-.76 6.226-.686 4.556-1.48 9.095-2.253 13.636-.267 1.512-2.161 2.295-3.373 1.327-2.913-1.968-5.849-3.916-8.725-5.93-.942-.957-.069-2.332.773-3.015 2.4-2.365 4.944-4.374 7.218-6.86.613-1.482-1.2-.234-1.797.149-3.285 2.263-6.49 4.665-9.952 6.655-1.77.973-3.831.141-5.6-.402-1.585-.657-3.908-1.318-2.54-2.319z" fill="#fff"/>
  </symbol>
    
  <symbol id='ok' viewBox="0 0 48 48">
    <path d="M0 24C0 10.745 10.745 0 24 0s24 10.745 24 24-10.745 24-24 24S0 37.255 0 24z"/>
    <path d="M26.596 29.44l3.587 3.463a1.769 1.769 0 0 1 0 2.566 1.926 1.926 0 0 1-2.657 0l-3.527-3.403-3.523 3.403a1.913 1.913 0 0 1-1.33.53 1.91 1.91 0 0 1-1.329-.53 1.77 1.77 0 0 1 0-2.566l3.587-3.463a12.281 12.281 0 0 1-3.726-1.489c-.878-.534-1.142-1.654-.589-2.502.552-.85 1.712-1.105 2.592-.57 2.626 1.594 6.01 1.595 8.638 0 .88-.535 2.04-.28 2.592.57.553.847.289 1.968-.59 2.502a12.263 12.263 0 0 1-3.725 1.49z" fill="#fff"/>
    <path fill-rule="evenodd" clip-rule="evenodd" d="M17.568 18.194c0 3.414 2.877 6.191 6.416 6.191 3.539 0 6.416-2.777 6.416-6.191 0-3.416-2.877-6.194-6.416-6.194-3.539 0-6.416 2.778-6.416 6.194zm9.072 0c0-1.415-1.191-2.564-2.656-2.564-1.464 0-2.657 1.15-2.657 2.564 0 1.413 1.193 2.563 2.657 2.563 1.465 0 2.656-1.15 2.656-2.563z" fill="#fff"/>
  </symbol>
  
  <symbol id='instagram' viewBox="0 0 48 48">
    <path d="M0 24C0 10.745 10.745 0 24 0s24 10.745 24 24-10.745 24-24 24S0 37.255 0 24z"/>
    <mask id="a" maskUnits="userSpaceOnUse" x="0" y="0" width="48" height="48">
      <path fill-rule="evenodd" clip-rule="evenodd" d="M0 24C0 10.745 10.745 0 24 0s24 10.745 24 24-10.745 24-24 24S0 37.255 0 24z" fill="#fff"/>
    </mask>
    <g mask="url(#a)">
      <path fill-rule="evenodd" clip-rule="evenodd" d="M24.001 11.2c-3.476 0-3.912.015-5.278.077-1.362.063-2.293.278-3.106.595a6.267 6.267 0 0 0-2.268 1.476 6.283 6.283 0 0 0-1.477 2.267c-.318.814-.534 1.745-.595 3.107-.061 1.365-.077 1.802-.077 5.278 0 3.476.016 3.911.077 5.277.063 1.362.279 2.293.595 3.106a6.272 6.272 0 0 0 1.476 2.268 6.267 6.267 0 0 0 2.267 1.477c.814.317 1.745.532 3.107.595 1.366.062 1.802.077 5.278.077 3.476 0 3.911-.015 5.276-.077 1.363-.063 2.294-.278 3.109-.595a6.262 6.262 0 0 0 2.266-1.477 6.284 6.284 0 0 0 1.477-2.267c.315-.814.53-1.745.595-3.107.061-1.365.077-1.8.077-5.277 0-3.476-.016-3.913-.077-5.278-.064-1.363-.28-2.293-.595-3.107a6.282 6.282 0 0 0-1.477-2.267 6.255 6.255 0 0 0-2.267-1.476c-.816-.317-1.747-.532-3.11-.595-1.365-.062-1.8-.077-5.277-.077h.004zm-.427 2.307h.427c3.418 0 3.823.012 5.172.073 1.249.057 1.926.266 2.377.441.597.232 1.023.51 1.471.957.448.448.725.875.958 1.472.175.451.384 1.128.44 2.376.062 1.35.075 1.755.075 5.171 0 3.416-.013 3.822-.074 5.17-.057 1.249-.266 1.926-.441 2.377a3.958 3.958 0 0 1-.958 1.47 3.958 3.958 0 0 1-1.47.958c-.452.176-1.13.384-2.377.44-1.35.062-1.755.075-5.173.075s-3.823-.013-5.172-.074c-1.248-.058-1.925-.266-2.377-.442a3.965 3.965 0 0 1-1.472-.957 3.967 3.967 0 0 1-.958-1.471c-.175-.45-.384-1.128-.44-2.376-.062-1.35-.074-1.755-.074-5.173s.012-3.821.073-5.17c.057-1.249.266-1.926.441-2.377.232-.598.51-1.024.958-1.472a3.972 3.972 0 0 1 1.472-.958c.451-.176 1.129-.384 2.377-.442 1.18-.053 1.638-.069 4.024-.072v.004h.721zm5.724 3.66a1.536 1.536 0 1 1 3.071 0 1.536 1.536 0 0 1-3.071 0zm-5.297.26a6.574 6.574 0 1 0 .001 13.147 6.574 6.574 0 0 0-.001-13.147zM28.268 24a4.267 4.267 0 1 0-8.533 0 4.267 4.267 0 0 0 8.533 0z" fill="#fff"/>
    </g>
  </symbol>
  
</svg>






