<svg xmlns="http://www.w3.org/2000/svg" viewBox="0 0 1017.027 211.667">
  <g style="line-height:1.25">
    <path style="-inkscape-font-specification:'Georgia Bold'" d="M1017.027 177.855q-6.887 3.013-14.741 5.38-7.855 2.475-19.153 2.475-16.786 0-24.964-8.177-8.07-8.178-8.07-23.35V88.116h-19.368v-11.62h19.799V43.891h34.97v32.603h30.128v11.621h-29.913v58.966q0 12.589 3.443 17.861 3.551 5.273 12.59 5.273 2.905 0 8.07-.43 5.164-.431 7.209-.97zm-89.954 4.95h-68.004v-7.855q2.798-.215 5.488-.538 2.69-.323 4.626-1.076 3.444-1.291 4.842-3.658 1.4-2.475 1.4-6.456v-62.624q0-3.766-1.722-6.563-1.722-2.906-4.304-4.627-1.937-1.292-5.918-2.475-3.874-1.184-7.102-1.506v-7.855l52.724-2.798 1.614 1.614v85.435q0 3.766 1.614 6.456 1.615 2.583 4.627 3.874 2.152.968 4.735 1.721 2.582.754 5.38 1.076zm-15.71-146.767q0 8.177-6.349 13.988-6.24 5.703-14.848 5.703-8.716 0-15.065-5.703-6.24-5.81-6.24-13.988t6.24-13.988q6.349-5.81 15.065-5.81 8.715 0 14.956 5.81 6.24 5.81 6.24 13.988zm-61.225 144.507l-51.325 3.12-1.615-1.506v-14.095h-.645q-3.659 3.335-7.21 6.563-3.443 3.12-8.285 5.703-5.487 2.905-10.437 4.304-4.842 1.4-14.203 1.4-16.248 0-24.964-9.793-8.608-9.791-8.608-27.653v-48.42q0-4.197-1.614-6.78-1.614-2.69-4.304-4.734-2.152-1.614-5.595-2.26-3.443-.752-6.24-.968v-7.855l52.186-2.797 1.183 1.614v71.554q0 11.083 4.196 16.356 4.304 5.272 11.729 5.272 7.64 0 13.665-3.981 6.133-3.981 8.931-8.5V99.091q0-3.659-1.399-6.564-1.399-2.905-4.089-4.734-1.936-1.292-5.595-1.722-3.55-.43-7.317-.646V77.57l52.187-2.797 1.614 1.614v83.068q0 3.766 1.506 6.456 1.506 2.582 4.412 4.411 2.044 1.292 5.272 1.83 3.336.43 6.564.538zm-196.048 5.703q-14.957 0-26.47-4.304-11.406-4.411-18.83-11.944-7.425-7.64-11.083-18.076-3.659-10.438-3.659-22.704 0-11.19 4.412-21.305 4.52-10.115 12.159-17.754 7.855-7.855 19.476-12.482 11.728-4.734 25.824-4.734 19.798 0 31.312 7.532 11.513 7.424 11.513 20.121 0 7.747-4.089 12.482-4.089 4.734-14.096 4.734-8.07 0-13.557-3.873-5.38-3.874-5.38-10.115 0-5.272 1.721-10.437 1.722-5.165 2.045-7.855-1.184-1.937-3.013-2.905-1.83-1.076-5.703-1.076-4.842 0-8.823 2.26-3.981 2.26-7.425 7.962-3.335 5.38-5.38 14.418-1.937 9.039-1.937 21.736 0 19.153 8.931 30.881 9.039 11.729 21.52 11.729 11.944 0 18.938-5.273 7.102-5.38 12.59-15.171l8.07 5.595q-3.336 6.563-7.963 12.051-4.627 5.38-11.083 9.576-6.779 4.412-13.773 6.672t-16.247 2.26zm-124.817.215q-10.437 0-20.444-3.12-9.9-3.013-15.387-6.456l-3.228 7.317h-8.393l-1.399-40.135h7.855q1.614 4.842 5.38 10.975 3.766 6.026 8.608 10.868 5.057 4.842 11.513 8.177 6.564 3.336 13.988 3.336 9.792 0 14.527-3.766 4.842-3.874 4.842-11.836 0-4.304-2.152-7.102-2.152-2.797-5.918-4.842-4.197-2.152-9.254-3.658-4.95-1.507-12.267-3.659-7.316-2.152-12.589-4.304-5.165-2.26-10.76-6.994-4.842-4.196-7.747-10.114-2.905-5.918-2.905-14.096 0-15.172 12.696-24.533 12.805-9.361 33.464-9.361 9.792 0 17.97 2.044 8.285 1.937 13.88 4.304l2.26-6.348h8.177l1.722 36.692h-7.64q-3.766-11.19-12.912-19.26-9.146-8.178-19.69-8.178-8.286 0-13.02 3.443-4.735 3.443-4.735 9.576 0 8.178 6.887 11.836 6.994 3.659 19.475 6.887 19.261 4.95 28.192 13.557 8.93 8.5 8.93 21.736 0 17.646-13.88 27.33-13.773 9.684-36.046 9.684zm-59.719-3.658h-68.003v-7.855q2.797-.215 5.487-.538 2.69-.323 4.627-1.076 3.443-1.291 4.842-3.658 1.399-2.475 1.399-6.456v-62.624q0-3.766-1.722-6.564-1.721-2.905-4.304-4.626-1.937-1.292-5.918-2.475-3.873-1.184-7.101-1.507v-7.854l52.724-2.798 1.614 1.614v85.435q0 3.766 1.614 6.456 1.614 2.583 4.627 3.874 2.152.968 4.735 1.721 2.582.754 5.38 1.076zm-15.71-146.768q0 8.178-6.348 13.989-6.24 5.702-14.849 5.702-8.715 0-15.064-5.702-6.24-5.81-6.24-13.989 0-8.177 6.24-13.988 6.349-5.81 15.064-5.81 8.716 0 14.957 5.81 6.24 5.81 6.24 13.988zm-66.389 94.151q0 24.21-16.032 40.135-15.925 15.925-40.458 15.925-9.47 0-16.356-1.399-6.778-1.29-11.513-3.228-4.95-2.044-7.962-3.98-2.906-2.045-4.627-3.336l-15.387 13.988-6.349-2.475q.538-7.855.861-17.001.43-9.254.43-24.856V43.247q0-4.089-1.721-7.532-1.614-3.551-4.412-5.38-2.044-1.291-6.025-2.26-3.874-.968-7.21-1.183v-7.855l53.155-2.798 1.614 1.722V87.9h.646q7.855-7.64 16.14-11.19 8.285-3.551 16.57-3.551 22.597 0 35.616 15.387 13.02 15.387 13.02 41.641zm-38.629 1.291q0-8.177-1.29-15.71-1.184-7.639-4.09-13.45-2.905-5.81-7.64-9.253-4.734-3.55-11.728-3.55-6.563 0-10.868 2.151-4.304 2.152-7.747 6.349v62.623q.646 2.152 2.367 5.703 1.83 3.443 3.659 5.38 2.582 2.798 5.488 4.304 2.905 1.399 8.177 1.399 10.975 0 17.324-11.944 6.348-12.051 6.348-34.002zM147.044.02c-2.476.07-4.976.401-7.48.992-11.117 2.628-19.874 9.99-24.669 19.437-8.519-6.298-19.64-8.955-30.757-6.326-11.118 2.631-19.874 9.99-24.668 19.437-8.519-6.297-19.633-8.955-30.749-6.325C8.68 31.974-3.73 52.064 1.01 72.107c2.63 11.117 9.998 19.874 19.445 24.668-6.296 8.52-8.963 19.643-6.334 30.76 2.63 11.117 9.997 19.864 19.445 24.66-6.299 8.518-8.964 19.648-6.334 30.766 4.741 20.043 24.83 32.436 44.872 27.695 11.116-2.63 19.872-9.98 24.667-19.427 8.52 6.298 19.641 8.946 30.758 6.316s19.873-9.98 24.668-19.427c8.52 6.296 19.633 8.955 30.748 6.325 20.043-4.74 32.454-24.83 27.713-44.873-2.63-11.12-9.996-19.875-19.445-24.669 6.3-8.52 8.964-19.64 6.334-30.758-2.629-11.117-9.99-19.865-19.436-24.66 6.298-8.519 8.955-19.64 6.325-30.758C180.287 11.187 164.383-.51 147.045.017zm-18.722 44.077A13.445 13.446 0 0 1 141.77 57.54a13.445 13.446 0 0 1-13.446 13.446 13.445 13.446 0 0 1-13.445-13.446 13.445 13.446 0 0 1 13.445-13.445zm-67.66 21.108A13.445 13.446 0 0 1 74.11 78.65a13.445 13.446 0 0 1-13.445 13.445A13.445 13.446 0 0 1 47.217 78.65a13.445 13.446 0 0 1 13.446-13.446zm44.24 27.036a13.445 13.446 0 0 1 13.445 13.445 13.445 13.446 0 0 1-13.445 13.446 13.445 13.446 0 0 1-13.446-13.446 13.445 13.446 0 0 1 13.446-13.445zm44.24 26.89a13.445 13.446 0 0 1 13.444 13.447 13.445 13.446 0 0 1-13.445 13.445 13.445 13.446 0 0 1-13.446-13.445 13.445 13.446 0 0 1 13.446-13.446zm-67.66 21.11a13.445 13.446 0 0 1 13.444 13.445 13.445 13.446 0 0 1-13.445 13.445 13.445 13.446 0 0 1-13.445-13.445 13.445 13.446 0 0 1 13.445-13.446z" font-weight="700" font-family="Georgia" aria-label="biscuit" font-size="9.018" letter-spacing="0" word-spacing="0" stroke-width=".155" fill="#fff"/>
  </g>
</svg>
