<svg xmlns="http://www.w3.org/2000/svg" xmlns:xlink="http://www.w3.org/1999/xlink" version="1.1" x="0px" y="0px" viewBox="0 0 100 125" enable-background="new 0 0 100 100" xml:space="preserve"><path stroke="#000000" stroke-miterlimit="10" d="M82.028,21.557c1.44,0,2.592-1.158,2.592-2.59c0-1.433-1.158-2.592-2.592-2.592  c-1.428,0-2.593,1.163-2.593,2.592C79.436,20.399,80.601,21.557,82.028,21.557z M71.438,23.982c-1.431,0-2.592,1.163-2.592,2.589  c0,1.436,1.161,2.595,2.592,2.595s2.592-1.162,2.592-2.595C74.03,25.146,72.869,23.982,71.438,23.982z M88.473,44.319  c-0.43-0.319-0.981-0.439-1.501-0.342c-2.111,0.404-4.279-0.272-5.787-1.784c-1.265-1.261-1.932-2.942-1.893-4.732  c0.019-0.7-0.341-1.348-0.94-1.712c-0.594-0.357-1.344-0.372-1.947-0.033c-3.513,1.958-8.161,1.324-11.016-1.534  c-2.906-2.904-3.535-7.434-1.537-11.021c0.337-0.604,0.225-1.335-0.125-1.928c-0.347-0.595-1.091-0.959-1.777-0.959  c-1.738,0-3.361-0.674-4.584-1.89c-1.518-1.514-2.178-3.679-1.787-5.792c0.104-0.525-0.025-1.07-0.34-1.505  c-0.317-0.433-0.802-0.715-1.334-0.781c-1.938-0.244-3.565-0.354-5.127-0.354c-22.515,0-40.829,18.312-40.829,40.828  c0,22.515,18.314,40.828,40.829,40.828c22.514,0,40.831-18.313,40.831-40.828c0-1.56-0.109-3.186-0.353-5.132  C89.191,45.121,88.909,44.639,88.473,44.319z M49.398,31.875c1.476-0.318,2.991-0.049,4.269,0.775  c1.264,0.817,2.143,2.087,2.457,3.558c0.23,1.049-0.437,2.09-1.485,2.315c-0.138,0.027-0.279,0.047-0.414,0.047  c-0.898,0-1.706-0.621-1.898-1.536c-0.097-0.464-0.373-0.858-0.769-1.115c-0.398-0.255-0.865-0.345-1.328-0.239  c-1.048,0.217-2.082-0.438-2.316-1.485C47.688,33.141,48.354,32.113,49.398,31.875z M30.024,29.56  c0.27-0.437,0.705-0.753,1.206-0.869l6.044-1.423c0.492-0.116,1.027-0.034,1.464,0.238c0.441,0.27,0.753,0.708,0.871,1.21  l1.42,6.037c0.245,1.044-0.401,2.093-1.445,2.335l-6.034,1.427c-0.155,0.033-0.3,0.05-0.451,0.05c-0.88,0-1.679-0.602-1.89-1.499  l-1.421-6.04C29.673,30.529,29.755,30,30.024,29.56z M39.255,47.156c0,1.433-1.159,2.592-2.592,2.592s-2.592-1.162-2.592-2.592  c0-1.428,1.162-2.59,2.592-2.59C38.096,44.566,39.255,45.726,39.255,47.156z M19.65,49.717c-0.076,0.003-0.154,0.009-0.223,0.009  c-0.975,0-1.816-0.729-1.931-1.721c-0.17-1.498,0.25-2.977,1.185-4.162c0.937-1.186,2.284-1.928,3.785-2.109  c1.104-0.095,2.032,0.645,2.154,1.712c0.122,1.062-0.643,2.027-1.711,2.148c-0.973,0.111-1.665,0.995-1.558,1.961  C21.479,48.626,20.715,49.588,19.65,49.717z M26.26,61.659c-2.769,0-5.022-2.252-5.022-5.021c0-2.771,2.253-5.023,5.022-5.023  s5.021,2.259,5.021,5.023C31.286,59.407,29.033,61.659,26.26,61.659z M41.544,77.459c-0.114,0.994-0.953,1.719-1.928,1.719  c-0.076,0-0.154-0.006-0.227-0.016l-6.682-0.773c-0.512-0.061-0.982-0.324-1.301-0.728c-0.321-0.401-0.467-0.915-0.408-1.435  l0.776-6.679c0.127-1.068,1.113-1.815,2.154-1.707l6.686,0.773c0.512,0.061,0.981,0.324,1.301,0.722  c0.322,0.407,0.467,0.924,0.404,1.438L41.544,77.459z M45.036,21.368c-0.808,0.542-1.028,1.646-0.48,2.455  c0.602,0.889,0.366,2.101-0.524,2.696c-0.335,0.223-0.71,0.332-1.084,0.332c-0.621,0-1.238-0.304-1.613-0.858  c-1.74-2.589-1.051-6.106,1.535-7.852c0.896-0.603,2.101-0.361,2.696,0.526C46.16,19.56,45.926,20.77,45.036,21.368z M48.946,84.709  c-1.436,0-2.592-1.162-2.592-2.593c0-1.434,1.159-2.592,2.592-2.592c1.431,0,2.59,1.161,2.59,2.592  C51.536,83.551,50.374,84.709,48.946,84.709z M52.197,66.677c-0.41,0.228-0.699,0.604-0.827,1.062  c-0.129,0.452-0.069,0.924,0.16,1.341c0.529,0.931,0.199,2.117-0.738,2.65c-0.303,0.167-0.629,0.243-0.952,0.243  c-0.677,0-1.338-0.35-1.695-0.987c-0.743-1.315-0.928-2.843-0.521-4.299c0.404-1.457,1.357-2.663,2.671-3.403  c0.943-0.521,2.12-0.189,2.646,0.747S53.134,66.15,52.197,66.677z M52.018,56.908c-2.767,0-5.017-2.252-5.017-5.017  c0-2.773,2.253-5.027,5.017-5.027c2.769,0,5.023,2.257,5.023,5.027C57.048,54.656,54.789,56.908,52.018,56.908z M62.46,59.716  c1.427,0,2.592,1.164,2.592,2.592s-1.165,2.595-2.592,2.595c-1.435,0-2.593-1.161-2.593-2.595S61.025,59.716,62.46,59.716z   M62.944,79.769c-2.766,0-5.021-2.252-5.021-5.023c0-2.772,2.255-5.021,5.021-5.021c2.771,0,5.021,2.255,5.021,5.021  C67.968,77.52,65.716,79.769,62.944,79.769z M76.758,50.107l-1.804,6.41c-0.237,0.856-1.02,1.421-1.873,1.421  c-0.167,0-0.344-0.025-0.522-0.074l-6.41-1.796c-0.49-0.142-0.914-0.472-1.164-0.918c-0.257-0.449-0.317-0.981-0.183-1.479  l1.806-6.409c0.135-0.496,0.469-0.916,0.914-1.166c0.452-0.261,0.979-0.326,1.479-0.175l6.409,1.798  C76.439,48.002,77.04,49.071,76.758,50.107z M63.079,17.087l5.146,2.116c0.937,0.385,2.015-0.016,2.477-0.924l3.207-6.373  c0.283-0.571,0.276-1.245-0.038-1.806c-0.308-0.562-0.869-0.937-1.501-1.002l-6.673-0.696c-0.908-0.091-1.755,0.454-2.047,1.307  l-1.674,4.958c-0.27,0.794,0,1.643,0.625,2.141C62.738,16.92,62.905,17.015,63.079,17.087z M91.553,29.643l-3.904-4.35  c-0.626-0.699-1.668-0.851-2.467-0.357l-4.466,2.742c-0.802,0.492-1.139,1.501-0.782,2.382l2.755,6.862  c0.241,0.598,0.754,1.031,1.383,1.172c0.629,0.139,1.29-0.035,1.745-0.479l5.614-5.256C92.213,31.637,92.258,30.427,91.553,29.643z"/><text x="0" y="115" fill="#000000" font-size="5px" font-weight="bold" font-family="'Helvetica Neue', Helvetica, Arial-Unicode, Arial, Sans-serif">Created by Round Pixel</text><text x="0" y="120" fill="#000000" font-size="5px" font-weight="bold" font-family="'Helvetica Neue', Helvetica, Arial-Unicode, Arial, Sans-serif">from the Noun Project</text></svg>