<svg xmlns="http://www.w3.org/2000/svg" viewBox="0 0 48 48" fill="none">
  <path d="M0 24C0 10.745 10.745 0 24 0s24 10.745 24 24-10.745 24-24 24S0 37.255 0 24z" fill="red"/>
  <path d="M24 15.2s-8.005 0-10.002.55a3.248 3.248 0 0 0-2.264 2.322C11.2 20.122 11.2 24.4 11.2 24.4s0 4.277.535 6.327a3.254 3.254 0 0 0 2.264 2.324C15.995 33.6 24 33.6 24 33.6s8.005 0 10.002-.55c1.101-.301 1.97-1.192 2.264-2.323.535-2.05.535-6.327.535-6.327s0-4.278-.535-6.328a3.254 3.254 0 0 0-2.264-2.324C32.005 15.199 24 15.199 24 15.199zm-2.4 5.6l6.4 4-6.4 4v-8z" fill="#fff"/>
</svg>
