<svg xmlns="http://www.w3.org/2000/svg" style="visibility:hidden; width:0; height:0;">


  <symbol id='fb' viewBox="0 0 24 24">
    <path d="M23.998 12c0-6.628-5.372-12-11.999-12C5.372 0 0 5.372 0 12c0 5.988 4.388 10.952 10.124 11.852v-8.384H7.078v-3.469h3.046V9.356c0-3.008 1.792-4.669 4.532-4.669 1.313 0 2.686.234 2.686.234v2.953H15.83c-1.49 0-1.955.925-1.955 1.874V12h3.328l-.532 3.469h-2.796v8.384c5.736-.9 10.124-5.864 10.124-11.853z"/>
  </symbol>

  <symbol id='github' viewBox="0 0 24 24">
    <path d="M12 .297c-6.63 0-12 5.373-12 12 0 5.303 3.438 9.8 8.205 11.385.6.113.82-.258.82-.577 0-.285-.01-1.04-.015-2.04-3.338.724-4.042-1.61-4.042-1.61C4.422 18.07 3.633 17.7 3.633 17.7c-1.087-.744.084-.729.084-.729 1.205.084 1.838 1.236 1.838 1.236 1.07 1.835 2.809 1.305 3.495.998.108-.776.417-1.305.76-1.605-2.665-.3-5.466-1.332-5.466-5.93 0-1.31.465-2.38 1.235-3.22-.135-.303-.54-1.523.105-3.176 0 0 1.005-.322 3.3 1.23.96-.267 1.98-.399 3-.405 1.02.006 2.04.138 3 .405 2.28-1.552 3.285-1.23 3.285-1.23.645 1.653.24 2.873.12 3.176.765.84 1.23 1.91 1.23 3.22 0 4.61-2.805 5.625-5.475 5.92.42.36.81 1.096.81 2.22 0 1.606-.015 2.896-.015 3.286 0 .315.21.69.825.57C20.565 22.092 24 17.592 24 12.297c0-6.627-5.373-12-12-12"/>
  </symbol>

  <symbol id='youtube' viewBox="0 0 24 24">
    <path d="M23.495 6.205a3.007 3.007 0 0 0-2.088-2.088c-1.87-.501-9.396-.501-9.396-.501s-7.507-.01-9.396.501A3.007 3.007 0 0 0 .527 6.205a31.247 31.247 0 0 0-.522 5.805 31.247 31.247 0 0 0 .522 5.783 3.007 3.007 0 0 0 2.088 2.088c1.868.502 9.396.502 9.396.502s7.506 0 9.396-.502a3.007 3.007 0 0 0 2.088-2.088 31.247 31.247 0 0 0 .5-5.783 31.247 31.247 0 0 0-.5-5.805zM9.609 15.601V8.408l6.264 3.602z"/>
  </symbol>
  
  <symbol id='vk' viewBox="0 0 24 24">
    <path d="M11.701 18.771h1.437s.433-.047.654-.284c.21-.221.21-.63.21-.63s-.031-1.927.869-2.21c.887-.281 2.012 1.86 3.211 2.683.916.629 1.605.494 1.605.494l3.211-.044s1.682-.105.887-1.426c-.061-.105-.451-.975-2.371-2.76-2.012-1.861-1.742-1.561.676-4.787 1.469-1.965 2.07-3.166 1.875-3.676-.166-.48-1.26-.361-1.26-.361l-3.602.031s-.27-.031-.465.09c-.195.119-.314.391-.314.391s-.572 1.529-1.336 2.82c-1.623 2.729-2.268 2.879-2.523 2.699-.604-.391-.449-1.58-.449-2.432 0-2.641.404-3.75-.781-4.035-.39-.091-.681-.15-1.685-.166-1.29-.014-2.378.01-2.995.311-.405.203-.72.652-.539.675.24.03.779.146 1.064.537.375.506.359 1.636.359 1.636s.211 3.116-.494 3.503c-.495.262-1.155-.28-2.595-2.756-.735-1.26-1.291-2.67-1.291-2.67s-.105-.256-.299-.406c-.227-.165-.557-.225-.557-.225l-3.435.03s-.51.016-.689.24c-.166.195-.016.615-.016.615s2.686 6.287 5.732 9.453c2.79 2.902 5.956 2.715 5.956 2.715l-.05-.055z"/>
  </symbol>
  
  <symbol id='twitter' viewBox="0 0 24 24">
    <path d="M23.954 4.569a10 10 0 0 1-2.825.775 4.958 4.958 0 0 0 2.163-2.723c-.951.555-2.005.959-3.127 1.184a4.92 4.92 0 0 0-8.384 4.482C7.691 8.094 4.066 6.13 1.64 3.161a4.822 4.822 0 0 0-.666 2.475c0 1.71.87 3.213 2.188 4.096a4.904 4.904 0 0 1-2.228-.616v.061a4.923 4.923 0 0 0 3.946 4.827 4.996 4.996 0 0 1-2.212.085 4.937 4.937 0 0 0 4.604 3.417 9.868 9.868 0 0 1-6.102 2.105c-.39 0-.779-.023-1.17-.067a13.995 13.995 0 0 0 7.557 2.209c9.054 0 13.999-7.496 13.999-13.986 0-.209 0-.42-.015-.63a9.936 9.936 0 0 0 2.46-2.548l-.047-.02z"/>
  </symbol>
  
  <symbol id='telegram' viewBox="0 0 48 48">
    <path d="M24 48c13.255 0 24-10.745 24-24S37.255 0 24 0 0 10.745 0 24s10.745 24 24 24z"/>
    <path d="M7.938 24.174c2.806-1.545 5.938-2.835 8.864-4.132 5.034-2.123 10.088-4.21 15.193-6.152.994-.331 2.778-.655 2.953.817-.095 2.084-.49 4.155-.76 6.226-.686 4.556-1.48 9.095-2.253 13.636-.267 1.512-2.161 2.295-3.373 1.327-2.913-1.968-5.849-3.916-8.725-5.93-.942-.957-.069-2.332.773-3.015 2.4-2.365 4.944-4.374 7.218-6.86.613-1.482-1.2-.234-1.797.149-3.285 2.263-6.49 4.665-9.952 6.655-1.77.973-3.831.141-5.6-.402-1.585-.657-3.908-1.318-2.54-2.319z" fill="#fff"/>
  </symbol>
    
  <symbol id='ok' viewBox="0 0 24 24">
    <path d="M14.505 17.44a11.599 11.599 0 0 0 3.6-1.49 1.816 1.816 0 0 0-1.935-3.073 7.866 7.866 0 0 1-8.34 0 1.814 1.814 0 0 0-2.5.565c0 .002 0 .004-.002.005a1.812 1.812 0 0 0 .567 2.5l.002.002c1.105.695 2.322 1.2 3.596 1.488l-3.465 3.465A1.796 1.796 0 0 0 6 23.439l.03.03c.344.354.81.53 1.274.53.465 0 .93-.176 1.275-.53L12 20.065l3.404 3.406a1.815 1.815 0 0 0 2.566-2.565l-3.465-3.466zM12 12.388a6.202 6.202 0 0 0 6.195-6.193C18.195 2.78 15.415 0 12 0S5.805 2.78 5.805 6.197A6.2 6.2 0 0 0 12 12.389zm0-8.757a2.566 2.566 0 0 1 0 5.13 2.569 2.569 0 0 1-2.565-2.564A2.57 2.57 0 0 1 12 3.63z"/>
  </symbol>
  
  <symbol id='instagram' viewBox="0 0 24 1152">
    <path id="path4" d="M 11.999999,0 C -144.48,0 -164.016,0.72 -225.456,3.456 -286.8,6.336 -328.56,15.984 -365.28,30.24 c -37.872,14.688 -70.032,34.416 -102.048,66.432 -32.016,32.016 -51.792,64.128 -66.432,102.048 -14.256,36.72 -23.952,78.48 -26.784,139.824 -2.88,61.44 -3.456,80.976 -3.456,237.456 0,156.48 0.72,176.016 3.456,237.456 2.88,61.296 12.528,103.104 26.784,139.824 14.688,37.824 34.416,70.032 66.432,102.048 32.016,31.968 64.128,51.792 102.048,66.432 36.768,14.208 78.528,23.952 139.824,26.784 61.44,2.88 80.976,3.456 237.455999,3.456 156.480001,0 176.016001,-0.72 237.456001,-3.456 61.296,-2.88 103.104,-12.576 139.824,-26.784 37.824,-14.688 70.032,-34.464 102.048,-66.432 31.968,-32.016 51.792,-64.08 66.432,-102.048 14.208,-36.72 23.952,-78.528 26.784,-139.824 C 587.424,752.016 588,732.48 588,576 588,419.52 587.28,399.984 584.544,338.544 581.664,277.248 571.968,235.392 557.76,198.72 543.072,160.848 523.296,128.688 491.328,96.672 459.312,64.656 427.248,44.88 389.28,30.24 352.56,15.984 310.752,6.288 249.456,3.456 188.016,0.576 168.48,0 11.999999,0 Z m 0,103.68 C 165.744,103.68 184.08,104.448 244.8,107.088 c 56.16,2.64 86.64,11.952 106.896,19.92 26.976,10.416 46.08,22.896 66.336,43.008 20.112,20.16 32.592,39.312 43.008,66.288 7.872,20.256 17.28,50.736 19.824,106.896 2.736,60.768 3.36,79.008 3.36,232.8 0,153.792 -0.72,172.08 -3.552,232.8 -2.928,56.16 -12.288,86.64 -20.208,106.896 -10.752,26.976 -22.992,46.08 -43.152,66.336 -20.112,20.112 -39.552,32.592 -66.24,43.008 -20.16,7.872 -51.12,17.28 -107.28,19.824 -61.152,2.736 -79.152,3.36 -233.232001,3.36 -154.127999,0 -172.127999,-0.72 -233.231999,-3.552 -56.208,-2.928 -87.168,-12.288 -107.328,-20.208 -27.312,-10.752 -46.08,-22.992 -66.192,-43.152 -20.208,-20.112 -33.12,-39.552 -43.2,-66.24 -7.92,-20.16 -17.232,-51.12 -20.16,-107.28 -2.16,-60.48 -2.928,-79.152 -2.928,-232.512 0,-153.408 0.768,-172.128 2.928,-233.328 2.928,-56.16 12.24,-87.072 20.16,-107.232 10.08,-27.36 22.992,-46.08 43.2,-66.288 20.112,-20.112 38.88,-33.072 66.192,-43.104 20.16,-7.968 50.448,-17.328 106.608,-20.208 61.2,-2.16 79.2,-2.88 233.2319992,-2.88 z m 0,176.544 C -151.44,280.224 -283.776,412.704 -283.776,576 c 0,163.44 132.48,295.776 295.775999,295.776 C 175.44,871.776 307.776,739.296 307.776,576 307.776,412.56 175.296,280.224 11.999999,280.224 Z m 0,487.776 C -94.080001,768 -180,682.08 -180,576 -180,469.92 -94.080001,384 11.999999,384 118.08,384 204,469.92 204,576 204,682.08 118.08,768 11.999999,768 Z M 388.608,268.56 c 0,38.16 -31.008,69.12 -69.12,69.12 -38.16,0 -69.12,-31.008 -69.12,-69.12 0,-38.112 31.008,-69.072 69.12,-69.072 38.064,0 69.12,30.96 69.12,69.072 z" />
  </symbol>
  
</svg>






